<?xml version="1.0" standalone="no"?>
<!DOCTYPE svg PUBLIC "-//W3C//DTD SVG 20010904//EN"
 "http://www.w3.org/TR/2001/REC-SVG-20010904/DTD/svg10.dtd">
<svg version="1.0" xmlns="http://www.w3.org/2000/svg"
 width="282.000000pt" height="179.000000pt" viewBox="0 0 282.000000 179.000000"
 preserveAspectRatio="xMidYMid meet">

<g transform="translate(0.000000,179.000000) scale(0.100000,-0.100000)"
fill="#000000" stroke="none">
<path d="M53 1743 c2 -40 -1 -48 -18 -51 -11 -2 -23 -9 -27 -16 -4 -6 -8 -64
-8 -128 0 -111 1 -118 20 -118 11 0 20 -5 20 -11 0 -6 -9 -9 -19 -6 -19 5 -20
-3 -21 -189 l-1 -194 31 6 c17 4 50 1 74 -6 34 -9 52 -9 80 0 20 6 37 16 37
21 3 19 5 24 12 37 12 18 -18 15 -34 -4 -7 -9 -21 -13 -34 -10 -12 3 -31 -1
-43 -9 -14 -10 -23 -12 -27 -5 -9 15 11 37 42 44 24 7 100 38 135 57 24 12 68
12 68 -1 0 -5 -4 -10 -10 -10 -5 0 -10 -7 -10 -16 0 -13 10 -15 60 -12 42 2
60 -1 60 -9 0 -6 -5 -15 -11 -19 -7 -4 -9 -21 -6 -40 4 -26 2 -34 -9 -34 -20
0 -9 -38 17 -63 11 -10 19 -23 19 -29 0 -6 -11 -1 -24 11 -29 27 -60 24 -64
-7 -3 -19 1 -22 26 -20 17 1 37 -3 44 -10 15 -12 69 -10 183 7 33 5 63 7 68 4
4 -2 7 13 7 35 l0 39 -55 -1 -55 -1 0 32 c0 17 -4 35 -10 38 -27 17 16 55 61
55 9 0 30 7 45 15 16 8 38 15 49 15 12 0 34 19 54 46 19 25 59 65 90 89 31 24
62 54 69 65 17 28 81 55 95 41 8 -8 6 -11 -6 -11 -20 0 -23 -16 -4 -24 6 -3 3
-4 -8 -3 -11 2 -19 9 -17 18 2 8 -9 1 -24 -15 -15 -15 -27 -38 -28 -49 -1 -13
-9 -23 -21 -25 -40 -8 -86 -35 -81 -48 3 -7 -3 -18 -12 -23 -10 -6 -12 -11 -4
-11 6 0 12 -9 12 -21 0 -11 -4 -18 -9 -14 -5 3 -13 0 -17 -6 -4 -8 -9 -7 -15
2 -6 10 -9 8 -9 -8 0 -13 -5 -23 -10 -23 -6 0 -10 -6 -9 -12 1 -7 -1 -21 -4
-30 -4 -10 -9 -25 -12 -34 -3 -8 -10 -12 -16 -9 -17 11 1 -135 23 -180 10 -22
34 -56 51 -76 40 -45 157 -124 206 -140 20 -6 41 -15 46 -19 45 -33 405 -104
405 -80 0 4 -3 16 -6 24 -5 13 -9 14 -21 4 -13 -10 -14 -8 -12 17 2 17 0 36
-4 43 -5 6 -4 12 2 12 18 0 13 25 -10 49 -11 12 -18 28 -15 36 3 8 1 17 -4 20
-6 4 -3 17 6 31 9 13 19 22 23 19 3 -4 10 15 16 42 9 43 8 49 -9 58 -10 6 -18
14 -17 19 2 5 -3 13 -11 17 -9 6 -5 9 14 9 15 0 30 -5 33 -10 3 -5 -2 -10 -12
-10 -17 -1 -17 -1 1 -12 16 -9 23 -5 44 23 14 19 52 59 84 89 42 40 58 63 58
82 0 14 6 29 13 31 9 4 9 6 0 6 -18 1 -16 21 1 21 13 0 43 57 38 73 -1 4 2 7
8 7 5 0 10 12 10 26 0 14 -4 23 -10 19 -5 -3 -10 -1 -10 5 0 7 8 9 20 5 11 -4
20 -2 20 4 0 6 -7 11 -15 11 -8 0 -17 11 -21 25 -9 36 -24 21 -20 -20 2 -19 0
-32 -5 -29 -5 3 -7 10 -4 15 10 15 -12 10 -26 -7 -11 -14 -13 -14 -21 0 -5 9
-17 16 -26 16 -13 0 -12 5 8 21 l25 20 -24 -6 c-15 -5 -27 -2 -32 6 -8 12 -11
12 -18 -1 -14 -21 -25 -5 -17 25 8 33 56 35 86 3 16 -18 20 -19 20 -5 0 22 18
31 35 17 9 -7 15 -8 20 0 6 9 -1 14 -17 11 -12 -2 -9 24 5 39 10 12 9 12 -5 2
-12 -10 -18 -10 -23 -2 -4 6 -5 14 -2 16 6 6 38 8 57 3 8 -2 15 3 15 11 0 8
-18 20 -45 28 -39 11 -53 11 -105 -3 -33 -10 -69 -22 -79 -27 -16 -8 -23 -6
-38 12 -10 13 -17 24 -15 26 6 6 193 24 302 28 120 5 146 11 139 31 -4 9 -23
14 -57 14 -69 0 -104 4 -113 14 -13 13 -24 7 -24 -12 0 -30 -19 -35 -26 -6 -7
27 -14 31 -31 14 -15 -15 -33 -3 -33 22 0 38 -19 18 -22 -23 -2 -31 -8 -44
-20 -46 -12 -2 -16 1 -13 10 3 7 0 20 -5 28 -9 13 -12 13 -25 -4 -16 -21 -38
-12 -31 12 3 10 1 24 -4 32 -7 11 -10 5 -10 -22 0 -21 -4 -38 -9 -38 -5 0 -7
-10 -4 -22 l5 -23 -16 22 c-9 12 -15 31 -14 44 2 12 -3 24 -11 27 -10 3 -12
-1 -8 -17 6 -24 -16 -75 -27 -63 -4 3 -16 -4 -26 -17 -16 -23 -19 -23 -34 -9
-9 9 -16 22 -16 29 0 10 -3 10 -12 1 -20 -20 -41 -15 -35 8 3 12 0 20 -8 20
-7 0 -15 -9 -18 -20 -6 -23 -27 -27 -27 -5 0 22 -17 18 -23 -5 -5 -20 -27 -28
-27 -10 0 6 -13 10 -30 10 -16 0 -30 5 -30 10 0 6 -4 10 -10 10 -5 0 -7 -7 -4
-15 4 -10 0 -15 -15 -15 -15 0 -21 6 -21 21 0 14 -5 19 -17 17 -12 -2 -17 -11
-15 -25 4 -29 -18 -41 -25 -14 -3 12 -12 21 -20 21 -9 0 -13 -6 -10 -15 8 -18
-13 -32 -23 -15 -6 10 -20 7 -61 -13 -29 -14 -59 -23 -66 -20 -14 6 -8 53 13
95 17 33 18 60 2 76 -9 9 -8 12 4 12 9 0 18 -8 20 -17 3 -10 21 -26 41 -37 34
-18 35 -18 56 3 12 12 21 27 21 34 0 8 3 7 10 -3 7 -12 28 -14 102 -12 51 1
100 2 108 2 8 -1 26 -2 40 -2 14 -1 43 7 64 17 l38 18 19 -24 c10 -13 16 -31
13 -39 -15 -37 -16 -60 -2 -60 8 0 15 8 16 18 1 9 3 35 4 57 3 36 6 40 38 48
43 10 318 12 380 2 25 -4 52 -13 60 -20 8 -7 35 -18 60 -25 93 -24 115 -34
147 -66 18 -19 27 -34 20 -35 -6 0 22 -11 63 -23 50 -15 79 -19 88 -13 8 6 12
5 12 -4 0 -8 25 -22 58 -32 31 -11 94 -39 139 -63 74 -40 86 -44 117 -35 19 5
37 7 40 4 5 -5 110 31 184 63 l42 19 0 177 c0 177 0 178 -20 161 -11 -10 -20
-27 -20 -39 0 -17 -9 -25 -36 -34 -38 -13 -48 -8 -59 28 -5 18 -2 22 13 22 15
0 19 5 15 20 -8 31 -56 27 -74 -7 -11 -20 -11 -27 -1 -30 21 -8 14 -32 -8 -26
-11 3 -20 9 -20 13 0 10 -26 7 -36 -3 -4 -4 -22 -7 -39 -7 -25 0 -34 -6 -44
-27 l-12 -26 -16 22 -15 22 -23 -21 c-20 -19 -23 -19 -35 -5 -16 20 -49 16
-64 -8 -8 -13 -8 -20 2 -26 22 -13 11 -66 -13 -66 -11 -1 -26 -4 -33 -9 -23
-14 -26 2 -23 114 l2 110 -925 0 c-887 0 -926 -1 -926 -18 0 -16 -49 -62 -65
-62 -17 0 -57 50 -52 64 6 14 -8 16 -118 16 l-125 0 3 -47z m727 17 c0 -6 -12
-16 -27 -23 -16 -6 -31 -15 -34 -20 -9 -12 -32 20 -24 33 4 7 16 10 26 7 10
-3 22 -1 25 4 7 12 34 11 34 -1z m-204 -77 c-7 -7 -26 7 -26 19 0 6 6 6 15 -2
9 -7 13 -15 11 -17z m2 -42 c3 -10 -1 -12 -16 -9 -12 3 -29 0 -38 -7 -30 -22
-72 4 -47 29 13 12 96 2 101 -13z m-310 -10 c8 -5 12 -22 10 -46 -3 -35 -7
-40 -45 -54 -47 -16 -51 -15 -59 20 -19 79 -14 100 16 64 7 -8 23 -15 37 -15
20 0 23 4 18 20 -7 21 1 25 23 11z m2134 -46 c-11 -21 -25 -4 -16 20 4 10 10
13 16 7 7 -7 7 -16 0 -27z m-558 -34 c4 -5 -3 -7 -14 -4 -23 6 -26 13 -6 13 8
0 17 -4 20 -9z m-1379 -61 c0 -7 -6 -15 -12 -17 -8 -3 -13 4 -13 17 0 13 5 20
13 18 6 -3 12 -11 12 -18z m825 -20 c0 -19 -20 -27 -33 -13 -8 7 11 33 24 33
5 0 9 -9 9 -20z m-1220 -9 c0 -6 -4 -13 -10 -16 -5 -3 -10 1 -10 9 0 9 5 16
10 16 6 0 10 -4 10 -9z m368 -8 c11 -11 8 -13 -18 -13 -17 0 -38 7 -47 15 -13
14 -11 15 19 13 18 -1 39 -8 46 -15z m761 3 c-2 -2 -15 -9 -29 -15 -24 -11
-24 -11 -6 3 16 13 49 24 35 12z m35 -24 c2 -4 -4 -9 -15 -9 -10 -1 -19 2 -19
8 0 11 27 12 34 1z m141 -2 c-3 -5 -11 -10 -16 -10 -6 0 -7 5 -4 10 3 6 11 10
16 10 6 0 7 -4 4 -10z m148 -1 c19 -11 18 -11 -2 -31 -26 -24 -57 -20 -53 7 3
16 2 17 -12 6 -9 -8 -19 -11 -23 -7 -9 9 24 32 49 33 12 1 30 -3 41 -8z m-427
-47 c-3 -2 -12 -2 -21 2 -13 5 -14 10 -4 28 l12 22 9 -23 c5 -13 6 -26 4 -29z
m54 28 c0 -5 -4 -10 -10 -10 -5 0 -10 5 -10 10 0 6 5 10 10 10 6 0 10 -4 10
-10z m116 -21 c3 -5 -2 -9 -10 -9 -9 0 -16 -7 -16 -17 0 -24 -12 -8 -15 20 -2
20 1 24 16 20 11 -3 22 -9 25 -14z m-110 1 c8 0 14 -6 14 -14 0 -19 -23 -33
-28 -18 -2 7 -10 12 -18 12 -8 0 -14 7 -14 16 0 11 5 14 16 10 9 -3 22 -6 30
-6z m218 2 c2 -4 1 -14 -3 -21 -6 -9 -10 -7 -14 8 -5 20 7 29 17 13z m-40 -17
c3 -8 1 -15 -4 -15 -6 0 -10 7 -10 15 0 8 2 15 4 15 2 0 6 -7 10 -15z m-324
-66 c0 -4 -7 -15 -16 -23 -14 -15 -13 -16 8 -17 22 -1 22 -1 -4 -12 -28 -11
-48 -39 -50 -73 -1 -11 -8 -21 -15 -21 -20 0 -16 19 12 57 14 19 25 45 25 59
0 14 3 37 7 50 6 23 7 23 20 6 7 -11 13 -22 13 -26z m405 25 c56 -14 28 -64
-47 -84 -32 -9 -47 -9 -61 0 -14 9 -22 8 -35 -2 -13 -10 -14 -10 -8 0 4 7 3
19 -3 26 -9 10 -8 15 4 20 8 3 15 13 15 23 0 16 2 16 11 3 8 -11 12 -12 16 -2
2 6 13 12 23 12 10 0 22 5 25 11 4 6 14 8 22 5 8 -4 25 -9 38 -12z m251 -89
c3 -13 4 -30 2 -36 -5 -14 -38 -21 -38 -8 0 5 5 9 11 9 7 0 8 11 4 30 -8 37
12 42 21 5z m-433 -6 c14 0 15 -4 7 -20 -8 -13 -7 -19 0 -19 6 0 3 -11 -6 -25
-9 -14 -13 -25 -9 -25 4 0 2 -6 -4 -14 -10 -12 -16 -12 -40 0 -48 24 -112 26
-148 4 -18 -11 -33 -17 -33 -14 0 3 26 32 57 64 57 58 58 58 108 54 27 -3 58
-5 68 -5z m255 -46 c12 -13 22 -31 22 -39 0 -8 5 -12 10 -9 6 3 10 -1 10 -10
0 -8 -10 -19 -22 -24 l-23 -8 23 -7 c29 -10 28 -33 -4 -63 -25 -23 -25 -25
-10 -49 15 -22 15 -25 1 -30 -8 -3 -23 -3 -32 2 -10 4 -32 8 -50 8 -29 1 -32
-1 -26 -23 4 -17 2 -22 -6 -17 -6 4 -11 15 -11 24 0 15 -2 15 -10 2 -8 -13
-10 -13 -10 2 0 9 5 18 10 20 12 4 -16 48 -31 48 -5 0 -9 -7 -9 -15 0 -8 4
-15 9 -15 11 0 -16 -102 -30 -111 -6 -3 -20 -4 -30 -2 -22 6 -26 45 -5 62 8 6
16 22 18 35 4 18 1 22 -12 19 -13 -4 -16 2 -15 31 0 19 8 43 18 54 9 10 17 32
17 48 0 33 19 53 68 73 47 20 66 2 56 -53 -4 -23 -7 -47 -7 -53 0 -9 -4 -10
-13 -2 -8 7 -14 6 -20 -2 -5 -8 -3 -9 6 -4 9 5 11 4 6 -3 -4 -7 -14 -12 -22
-12 -23 0 -28 -29 -8 -49 18 -17 19 -17 29 3 6 12 22 22 35 24 14 2 34 15 44
29 12 16 14 23 5 18 -11 -7 -12 -6 -2 7 7 8 10 17 7 21 -3 3 5 3 18 0 22 -6
22 -5 6 14 -10 11 -18 24 -18 30 0 6 -7 16 -15 23 -12 10 -17 8 -25 -11 l-11
-24 7 25 c3 14 6 36 5 50 0 24 1 24 12 6 7 -11 22 -30 35 -43z m73 4 c-10 -9
-11 -8 -5 6 3 10 9 15 12 12 3 -3 0 -11 -7 -18z m-526 3 c3 -5 1 -10 -4 -10
-6 0 -11 5 -11 10 0 6 2 10 4 10 3 0 8 -4 11 -10z m-55 -14 c0 -3 -4 -8 -10
-11 -5 -3 -10 -1 -10 4 0 6 5 11 10 11 6 0 10 -2 10 -4z m624 -31 c-4 -8 -16
-15 -28 -16 -15 0 -17 -2 -6 -7 21 -10 25 -36 5 -28 -9 3 -20 6 -25 6 -4 0 -7
8 -6 17 2 13 38 37 63 43 1 0 0 -7 -3 -15z m-1039 -31 c-14 -15 -29 -23 -36
-18 -8 5 -4 12 12 25 36 28 52 23 24 -7z m-55 -4 c0 -5 -5 -10 -11 -10 -5 0
-7 5 -4 10 3 6 8 10 11 10 2 0 4 -4 4 -10z m610 -44 c0 -6 5 -4 10 4 9 13 10
13 10 -1 0 -8 -7 -24 -15 -35 -8 -10 -15 -28 -15 -39 -1 -19 -2 -19 -9 -2 -6
17 -8 17 -20 3 -7 -9 -11 -22 -8 -31 4 -8 2 -17 -3 -20 -6 -4 -10 -16 -10 -28
0 -20 0 -20 -15 -1 -13 16 -15 16 -13 2 2 -9 -1 -17 -6 -17 -5 1 -16 -10 -25
-23 -9 -13 -23 -23 -31 -23 -8 0 -18 -4 -22 -10 -5 -6 -11 -5 -17 4 -5 7 -14
10 -20 7 -6 -4 -11 -3 -11 3 0 5 5 13 10 16 6 4 10 12 9 18 -4 26 14 76 28 81
8 4 13 13 9 21 -3 9 0 15 9 15 8 0 15 5 15 10 0 6 4 10 10 10 14 0 50 32 50
45 0 6 16 9 40 7 22 -2 40 -9 40 -16z m327 18 c-3 -3 -12 -4 -19 -1 -8 3 -5 6
6 6 11 1 17 -2 13 -5z m-647 -46 c0 -5 -4 -7 -9 -3 -6 3 -15 -3 -21 -12 -11
-17 -11 -17 -6 0 3 10 6 23 6 28 0 4 7 6 15 3 8 -4 15 -10 15 -16z m715 -48
c3 -5 1 -10 -4 -10 -6 0 -11 5 -11 10 0 6 2 10 4 10 3 0 8 -4 11 -10z m-719
-35 c-3 -8 -1 -15 3 -15 17 0 5 -30 -17 -46 -21 -14 -22 -14 -22 8 0 13 7 34
16 46 17 25 29 29 20 7z m419 -59 c12 -9 16 -20 12 -35 -4 -18 -3 -20 9 -10 8
6 18 8 22 4 4 -4 1 -10 -5 -12 -7 -3 -13 -11 -13 -19 0 -8 -7 -14 -16 -14 -8
0 -12 4 -9 10 4 6 -6 7 -25 4 -22 -5 -36 -2 -50 11 -24 22 -25 33 -3 57 19 21
52 23 78 4z m132 -8 c-3 -8 -6 -5 -6 6 -1 11 2 17 5 13 3 -3 4 -12 1 -19z
m-23 -32 c-3 -14 -11 -26 -16 -26 -5 0 -7 6 -4 13 3 6 9 20 12 30 10 27 16 13
8 -17z m112 0 c1 -11 -2 -28 -7 -38 -8 -15 -12 -16 -24 -6 -12 11 -11 15 3 26
8 6 12 12 7 12 -5 0 -19 -10 -32 -22 -19 -18 -23 -19 -23 -5 0 21 40 58 59 55
8 -2 15 -12 17 -22z m-554 -48 c-7 -7 -12 -8 -12 -2 0 14 12 26 19 19 2 -3 -1
-11 -7 -17z m447 1 c6 9 12 4 20 -20 13 -37 8 -47 -13 -30 -12 10 -14 9 -9 -8
3 -12 9 -19 13 -16 4 3 10 -2 13 -9 3 -8 1 -17 -6 -20 -7 -2 -3 -5 8 -5 14 -1
21 -8 21 -21 0 -11 -3 -20 -7 -20 -20 0 -39 14 -39 29 0 12 -2 13 -9 3 -6 -10
-12 -7 -25 12 -18 29 -36 34 -36 11 0 -8 -6 -12 -13 -9 -8 3 -18 -5 -25 -18
-10 -21 -11 -22 -11 -3 -1 20 37 62 52 57 4 -1 7 8 7 20 0 20 -1 20 -18 5 -24
-21 -39 -22 -21 -1 10 13 10 17 -2 25 -10 8 -8 9 9 4 18 -5 22 -2 22 15 0 21
0 21 30 3 25 -14 32 -15 39 -4z m66 -29 c3 -5 1 -10 -4 -10 -6 0 -11 5 -11 10
0 6 2 10 4 10 3 0 8 -4 11 -10z m-245 -60 c13 -9 12 -12 -4 -25 -19 -15 -66
-21 -66 -9 0 6 42 43 50 44 3 0 12 -5 20 -10z m99 -57 c-3 -21 3 -22 31 -8 38
20 54 19 46 -1 -4 -11 1 -22 14 -31 24 -17 27 -51 5 -59 -8 -4 -21 -1 -29 5
-7 6 -16 8 -19 4 -4 -3 -7 5 -7 18 0 14 5 30 12 37 10 10 5 11 -21 6 -23 -5
-36 -3 -42 7 -12 19 -11 29 1 29 6 0 9 -3 9 -7z m148 -10 c-4 -3 -2 -12 4 -20
9 -10 8 -13 -5 -13 -9 0 -16 6 -16 13 0 14 9 27 18 27 3 0 2 -3 -1 -7z"/>
<path d="M1415 990 c3 -5 8 -10 11 -10 2 0 4 5 4 10 0 6 -5 10 -11 10 -5 0 -7
-4 -4 -10z"/>
<path d="M2745 1780 c3 -5 10 -10 16 -10 5 0 9 5 9 10 0 6 -7 10 -16 10 -8 0
-12 -4 -9 -10z"/>
<path d="M1677 1641 c-4 -17 -3 -21 5 -13 5 5 8 16 6 23 -3 8 -7 3 -11 -10z"/>
<path d="M1790 1620 c0 -5 5 -10 10 -10 6 0 10 5 10 10 0 6 -4 10 -10 10 -5 0
-10 -4 -10 -10z"/>
<path d="M1848 1603 c7 -3 16 -2 19 1 4 3 -2 6 -13 5 -11 0 -14 -3 -6 -6z"/>
<path d="M1952 1568 c6 -18 28 -21 28 -4 0 9 -7 16 -16 16 -9 0 -14 -5 -12
-12z"/>
<path d="M2025 1530 c-3 -6 1 -7 9 -4 18 7 21 14 7 14 -6 0 -13 -4 -16 -10z"/>
<path d="M1802 1468 c-10 -26 -9 -35 3 -48 8 -9 12 -19 9 -23 -3 -3 9 -4 27
-2 19 3 44 17 62 35 16 16 39 31 51 31 15 1 12 3 -9 8 -20 4 -31 2 -33 -6 -2
-7 -12 -13 -22 -13 -9 0 -23 -7 -31 -16 -11 -14 -13 -14 -22 2 -7 12 -5 19 7
26 21 12 11 29 -11 21 -11 -4 -14 -3 -9 5 4 7 3 12 -1 12 -5 0 -14 -14 -21
-32z"/>
<path d="M1721 1441 c-10 -6 -10 -10 -1 -16 6 -4 9 -13 7 -19 -4 -9 2 -11 18
-8 12 2 26 -1 29 -7 4 -6 12 -11 18 -11 6 0 -1 11 -16 25 -15 14 -32 25 -37
25 -6 0 -7 5 -4 10 8 12 4 12 -14 1z"/>
<path d="M1697 1373 c-11 -10 -8 -41 5 -49 7 -4 8 -3 4 4 -5 8 0 12 13 12 13
0 19 -5 15 -14 -8 -21 16 -30 34 -13 14 15 13 15 -7 10 -17 -4 -20 -2 -15 11
11 28 -29 60 -49 39z"/>
<path d="M1801 1371 c-7 -5 -11 -15 -9 -22 3 -10 8 -7 17 9 13 24 12 26 -8 13z"/>
<path d="M2690 1324 c0 -8 5 -12 10 -9 6 4 8 11 5 16 -9 14 -15 11 -15 -7z"/>
<path d="M2556 1323 c-3 -3 14 -27 38 -53 125 -133 134 -256 39 -528 -27 -78
-33 -106 -24 -115 8 -8 11 -6 12 9 0 18 1 18 9 -1 6 -14 9 -16 10 -5 2 8 6 2
9 -15 6 -23 3 -35 -13 -53 -10 -12 -16 -22 -12 -22 15 0 46 21 46 31 0 5 12
21 28 34 26 23 26 24 9 42 -15 14 -18 15 -17 3 4 -28 0 -40 -13 -40 -18 0 -16
42 4 63 19 21 33 9 45 -37 6 -26 8 -27 19 -13 17 24 25 21 25 -8 0 -14 4 -25
9 -25 9 0 -2 67 -14 78 -3 4 -10 0 -15 -8 -12 -20 -23 -6 -16 18 5 14 13 18
26 15 17 -4 18 -1 14 29 -5 29 -2 36 20 47 24 13 26 19 26 84 0 62 -2 68 -16
57 -12 -11 -15 -11 -12 0 2 9 -6 15 -20 16 -12 1 -26 4 -30 8 -12 12 22 27 51
22 l27 -5 0 164 c0 181 3 174 -65 150 -37 -12 -38 -12 -17 2 12 8 22 22 22 29
0 17 -4 17 -30 4 -11 -5 -29 -14 -40 -20 -27 -14 -30 -13 -30 11 0 12 -5 19
-12 16 -7 -2 -12 -12 -12 -21 2 -20 -22 -21 -30 0 -3 8 -10 12 -16 9 -5 -3
-10 1 -10 9 0 17 -14 29 -24 19z m222 -331 c2 -7 -7 -12 -23 -12 -24 0 -26 2
-15 15 14 17 31 16 38 -3z m-43 -272 c3 -5 -3 -10 -15 -10 -12 0 -18 5 -15 10
3 6 10 10 15 10 5 0 12 -4 15 -10z"/>
<path d="M2185 1288 c-8 -18 -27 -47 -43 -63 -37 -41 -102 -139 -102 -154 0
-25 -49 -117 -73 -138 -21 -18 -28 -19 -37 -8 -6 8 -19 13 -28 12 -15 -1 -17
-13 -16 -87 1 -48 6 -96 13 -107 6 -11 13 -49 16 -84 4 -49 2 -66 -12 -81 -9
-10 -14 -20 -11 -23 9 -10 200 36 294 70 203 74 352 172 411 272 26 44 40 123
23 123 -6 0 -10 5 -10 11 0 5 5 7 10 4 6 -3 10 1 10 10 0 9 -4 14 -9 11 -5 -4
-17 13 -26 36 -18 48 -100 141 -157 178 -21 14 -38 31 -38 38 0 19 -10 15 -32
-14 -11 -14 -23 -23 -25 -20 -3 3 -21 -1 -41 -9 -23 -10 -39 -12 -47 -5 -6 5
-15 6 -19 2 -4 -4 -7 -2 -6 3 3 16 -12 55 -21 55 -4 0 -15 -15 -24 -32z"/>
<path d="M328 1051 c27 -24 28 -35 2 -28 -21 5 -35 -7 -26 -22 10 -16 86 27
86 49 0 11 -7 20 -15 20 -8 0 -15 -5 -15 -12 0 -9 -3 -9 -12 0 -7 7 -19 12
-27 12 -12 -1 -10 -5 7 -19z"/>
<path d="M1840 1060 c0 -5 5 -10 10 -10 6 0 10 5 10 10 0 6 -4 10 -10 10 -5 0
-10 -4 -10 -10z"/>
<path d="M665 1050 c-3 -5 -1 -10 4 -10 6 0 11 5 11 10 0 6 -2 10 -4 10 -3 0
-8 -4 -11 -10z"/>
<path d="M1850 992 c0 -14 11 -21 26 -15 8 3 11 9 8 14 -7 11 -34 12 -34 1z"/>
<path d="M187 979 c8 -8 16 -8 30 0 16 9 14 10 -11 11 -22 0 -27 -3 -19 -11z"/>
<path d="M15 945 c-19 -15 -18 -15 15 -13 19 2 34 8 33 13 -3 17 -27 17 -48 0z"/>
<path d="M82 834 c-19 -13 -22 -22 -17 -46 5 -20 4 -28 -3 -24 -6 3 -22 -5
-36 -19 -23 -23 -26 -34 -26 -100 0 -57 3 -73 13 -69 9 3 12 -6 10 -33 -12
-136 -15 -128 50 -132 11 -1 15 -6 11 -12 -5 -8 5 -10 32 -5 58 10 167 25 183
25 8 1 11 4 8 8 -4 3 7 15 23 25 25 15 34 16 50 6 15 -10 26 -9 55 5 20 9 43
17 51 17 16 0 102 26 139 42 18 7 18 8 -2 3 -31 -8 -38 13 -9 27 14 6 26 15
26 20 0 4 8 8 18 8 21 1 67 38 58 47 -3 4 -19 -3 -34 -14 -15 -11 -37 -23 -48
-27 -25 -8 -56 2 -48 15 7 12 -26 11 -64 -2 -42 -14 -66 -4 -25 11 21 8 30 16
26 26 -3 8 1 14 9 14 8 0 15 7 15 15 0 10 -7 13 -24 9 -14 -4 -23 -2 -23 5 0
6 -4 11 -10 11 -5 0 -7 -7 -4 -15 4 -8 1 -15 -6 -15 -6 0 -9 4 -5 9 3 5 1 12
-5 16 -5 3 -10 18 -10 32 0 20 4 24 18 19 15 -5 14 -4 -2 9 -16 12 -17 17 -6
30 7 8 18 15 25 15 16 0 50 38 42 47 -4 3 -7 2 -7 -4 0 -19 -88 -37 -116 -24
-27 12 -73 15 -98 5 -11 -4 -16 -19 -16 -45 0 -21 -4 -39 -10 -39 -5 0 -10 9
-10 20 0 11 -4 20 -10 20 -5 0 -10 -9 -10 -20 0 -11 -4 -20 -9 -20 -5 0 -8 11
-8 24 0 14 -10 41 -23 60 -17 28 -28 36 -50 36 -16 0 -36 -7 -44 -16 -15 -14
-20 -11 -17 9 1 10 -2 9 -27 -9z m128 -158 c0 -2 -7 -7 -16 -10 -8 -3 -12 -2
-9 4 6 10 25 14 25 6z m-10 -46 c0 -11 -4 -20 -10 -20 -5 0 -10 9 -10 20 0 11
5 20 10 20 6 0 10 -9 10 -20z m365 -50 c-3 -5 2 -10 11 -10 28 0 3 -19 -34
-26 -36 -7 -44 10 -14 32 20 16 46 18 37 4z"/>
<path d="M1416 765 c-4 -13 -2 -14 14 -5 23 12 24 8 11 -37 -5 -18 -6 -35 -2
-38 9 -5 22 75 15 87 -9 13 -32 9 -38 -7z"/>
<path d="M518 753 c7 -3 16 -2 19 1 4 3 -2 6 -13 5 -11 0 -14 -3 -6 -6z"/>
<path d="M2796 705 c-3 -9 0 -15 9 -15 8 0 15 7 15 15 0 8 -4 15 -9 15 -5 0
-11 -7 -15 -15z"/>
<path d="M790 600 c0 -5 5 -10 11 -10 5 0 7 5 4 10 -3 6 -8 10 -11 10 -2 0 -4
-4 -4 -10z"/>
<path d="M2567 593 c-4 -3 -7 -11 -7 -17 0 -6 5 -5 12 2 6 6 9 14 7 17 -3 3
-9 2 -12 -2z"/>
<path d="M2580 550 c0 -5 5 -10 11 -10 5 0 7 5 4 10 -3 6 -8 10 -11 10 -2 0
-4 -4 -4 -10z"/>
<path d="M2680 529 c-7 -11 -9 -23 -6 -26 3 -3 8 2 12 11 3 9 13 16 21 16 8 0
11 5 8 10 -10 16 -23 12 -35 -11z"/>
<path d="M2595 510 c6 -10 -24 -70 -35 -70 -3 0 -12 5 -20 10 -12 8 -13 13 -2
30 11 17 10 20 -7 20 -22 0 -45 -25 -36 -40 3 -5 1 -10 -5 -10 -6 0 -18 -6
-26 -14 -12 -13 -12 -16 -1 -23 13 -7 37 -45 37 -56 0 -3 -9 -7 -21 -10 -17
-5 -18 -3 -8 9 17 21 3 30 -16 10 -9 -9 -22 -16 -28 -16 -8 0 -7 3 2 9 7 5 9
11 4 14 -5 3 -32 -17 -59 -45 -27 -28 -84 -76 -127 -107 -44 -31 -87 -62 -97
-69 -10 -7 -29 -14 -43 -16 -14 -1 -33 -8 -41 -15 -8 -7 -21 -14 -28 -15 -7
-2 -26 -8 -43 -15 -108 -44 -347 -63 -474 -38 -60 12 -82 12 -110 2 -32 -11
-33 -12 -12 -18 16 -4 22 -11 18 -21 -8 -20 7 -21 23 -1 15 18 42 19 58 3 9
-9 12 -9 12 -1 0 8 9 7 28 -3 40 -21 672 -21 672 0 0 8 4 17 9 20 5 4 7 -4 4
-16 -5 -23 -5 -23 10 -3 10 12 16 15 17 7 0 -9 7 -9 30 3 17 9 35 13 41 9 8
-4 9 1 4 16 -5 16 -4 20 5 15 7 -4 15 -2 19 4 6 8 15 9 34 2 17 -7 28 -7 32
-1 4 6 1 10 -4 10 -6 0 -11 7 -11 16 0 14 2 14 16 -1 9 -9 23 -14 31 -11 8 3
23 2 32 -4 13 -6 24 -5 37 6 18 14 18 15 -6 10 -14 -3 -20 -3 -14 0 7 3 10 13
7 24 -3 10 2 29 11 42 11 15 16 17 16 8 0 -10 7 -6 20 10 11 14 18 33 16 42
-2 9 2 19 10 22 10 4 14 23 14 62 0 51 -2 56 -20 51 -11 -3 -18 -1 -14 4 3 5
14 9 25 9 10 0 19 5 19 10 0 6 5 10 11 10 6 0 9 -7 5 -15 -12 -32 10 -12 27
24 22 47 21 54 -1 42 -23 -12 -45 1 -36 23 5 13 9 14 20 5 11 -9 15 -8 20 5
10 26 -4 46 -31 46 -15 0 -24 -4 -20 -10z m-61 -78 c3 -5 -1 -9 -9 -9 -8 0
-15 4 -15 9 0 4 4 8 9 8 6 0 12 -4 15 -8z m98 -25 c-4 -14 -7 -16 -13 -5 -12
19 -11 25 5 25 8 0 11 -8 8 -20z m-220 -89 c-7 -7 -12 -8 -12 -2 0 14 12 26
19 19 2 -3 -1 -11 -7 -17z m60 -76 c-2 -30 0 -34 10 -24 17 17 48 15 48 -3 0
-8 5 -15 11 -15 5 0 8 -4 5 -9 -4 -5 -18 -8 -32 -6 -18 2 -24 -2 -20 -11 7
-18 -4 -45 -15 -38 -5 3 -9 10 -9 15 0 6 4 7 10 4 17 -10 6 39 -11 52 -9 6
-15 22 -13 35 1 13 3 29 3 37 1 8 4 11 8 7 4 -4 6 -23 5 -44z m72 -1 c-8 -10
-32 22 -27 35 4 12 8 10 18 -8 6 -13 10 -25 9 -27z m-47 7 c-3 -8 -6 -5 -6 6
-1 11 2 17 5 13 3 -3 4 -12 1 -19z m-187 -188 c0 -5 -4 -10 -10 -10 -5 0 -10
5 -10 10 0 6 5 10 10 10 6 0 10 -4 10 -10z"/>
<path d="M2500 209 c0 -5 5 -7 10 -4 6 3 10 8 10 11 0 2 -4 4 -10 4 -5 0 -10
-5 -10 -11z"/>
<path d="M2557 473 c-4 -3 -7 -11 -7 -17 0 -6 5 -5 12 2 6 6 9 14 7 17 -3 3
-9 2 -12 -2z"/>
<path d="M2745 450 c-3 -5 -1 -10 4 -10 6 0 11 5 11 10 0 6 -2 10 -4 10 -3 0
-8 -4 -11 -10z"/>
<path d="M920 380 c0 -5 4 -10 9 -10 6 0 13 5 16 10 3 6 -1 10 -9 10 -9 0 -16
-4 -16 -10z"/>
<path d="M910 340 c0 -5 7 -7 15 -4 8 4 15 8 15 10 0 2 -7 4 -15 4 -8 0 -15
-4 -15 -10z"/>
<path d="M2600 293 c0 -31 3 -53 7 -49 10 10 11 106 1 106 -4 0 -8 -26 -8 -57z"/>
<path d="M2738 333 c6 -2 18 -2 25 0 6 3 1 5 -13 5 -14 0 -19 -2 -12 -5z"/>
<path d="M2724 307 c3 -10 6 -23 6 -28 0 -5 7 -9 15 -9 20 0 19 7 -6 33 -18
18 -21 19 -15 4z"/>
<path d="M2750 310 c0 -5 10 -10 23 -10 18 0 19 2 7 10 -19 13 -30 13 -30 0z"/>
<path d="M920 300 c-12 -8 -11 -10 8 -10 12 0 22 5 22 10 0 13 -11 13 -30 0z"/>
<path d="M986 301 c56 -14 71 -34 34 -46 -11 -3 -20 -9 -20 -13 0 -9 76 -9 86
1 4 4 0 7 -10 7 -9 0 -15 4 -11 10 12 19 -34 50 -72 49 l-38 -1 31 -7z"/>
<path d="M625 275 c-38 -13 -117 -42 -175 -65 -58 -22 -175 -67 -260 -100 -85
-32 -163 -61 -172 -65 -10 -4 -18 -16 -18 -26 0 -18 10 -19 175 -19 149 0 175
2 175 15 0 8 5 15 10 15 6 0 10 -7 10 -15 0 -12 17 -15 93 -15 56 0 87 4 78 9
-11 7 -8 10 10 16 22 7 22 8 4 21 -17 12 -17 14 -2 14 26 0 31 1 42 10 6 4 25
11 44 15 24 5 30 10 20 16 -10 6 -5 9 16 10 17 0 44 2 60 3 17 2 43 -4 58 -13
25 -14 28 -21 25 -58 -3 -43 -3 -43 30 -43 32 0 86 19 182 64 25 11 49 20 53
18 4 -1 21 5 38 13 17 9 40 13 52 10 15 -4 18 -3 9 3 -11 7 -11 10 2 15 10 4
16 1 16 -9 0 -8 5 -12 11 -9 6 4 8 10 5 13 -3 3 -1 11 5 18 12 14 -12 25 -61
26 -22 1 -29 5 -26 15 8 21 -25 15 -69 -13 -37 -24 -28 -26 24 -6 9 3 12 -1 9
-14 -2 -12 -11 -18 -23 -17 -11 1 -14 0 -7 -3 16 -8 15 -24 -2 -24 -8 0 -16
-5 -18 -10 -2 -6 -12 -12 -23 -14 -11 -2 -24 -5 -30 -6 -24 -5 -25 2 -5 29 13
20 17 32 10 36 -13 8 -13 9 -33 -34 -9 -18 -14 -38 -10 -44 3 -6 1 -7 -6 -3
-6 4 -18 3 -25 -3 -11 -9 -15 -5 -20 20 -7 38 -2 46 18 30 21 -17 35 -6 31 24
-3 35 -15 44 -15 13 0 -22 -4 -25 -21 -21 -11 3 -24 15 -28 26 -7 19 -8 19
-13 -6 -3 -15 -2 -27 2 -27 5 0 8 -15 7 -34 0 -19 -5 -33 -9 -30 -4 3 -8 -2
-8 -11 0 -9 -4 -13 -10 -10 -5 3 -10 1 -10 -4 0 -6 -4 -11 -8 -11 -4 0 -8 15
-9 34 -1 39 -20 79 -34 71 -5 -4 -9 -1 -9 4 0 6 -18 11 -39 11 -22 0 -43 5
-46 10 -3 6 -1 10 6 10 9 0 9 3 0 14 -9 11 -9 15 1 19 9 3 7 9 -7 21 -18 14
-18 15 -2 16 9 0 17 3 17 8 0 4 19 8 43 10 23 1 57 7 75 13 18 6 39 8 47 5 8
-3 15 -1 15 4 0 6 -25 10 -56 10 -32 0 -53 4 -49 9 7 13 -48 9 -58 -4 -4 -6
-12 -3 -21 8 -7 9 -15 17 -17 16 -2 0 -35 -11 -74 -24z m-35 -45 c0 -5 -4 -10
-10 -10 -5 0 -10 5 -10 10 0 6 5 10 10 10 6 0 10 -4 10 -10z m-14 -27 c-10
-11 -36 -12 -36 -2 0 5 10 9 22 9 12 0 18 -3 14 -7z m57 -50 c-7 -2 -19 -2
-25 0 -7 3 -2 5 12 5 14 0 19 -2 13 -5z m-147 -21 c-3 -5 -23 -14 -45 -22 -23
-7 -41 -16 -41 -20 0 -4 -17 -11 -37 -15 -21 -3 -47 -12 -58 -19 -11 -7 -29
-15 -40 -18 -28 -7 -31 28 -4 42 13 7 19 7 19 0 0 -5 7 -10 15 -10 8 0 15 5
15 10 0 6 6 10 14 10 8 0 16 6 18 12 3 7 29 18 59 24 68 15 92 16 85 6z m34
-59 c-8 -3 -23 -10 -32 -15 -11 -5 -18 -5 -18 1 0 10 23 18 50 19 13 0 13 0 0
-5z"/>
<path d="M260 59 c0 -5 5 -7 10 -4 6 3 10 8 10 11 0 2 -4 4 -10 4 -5 0 -10 -5
-10 -11z"/>
<path d="M2700 245 c-7 -8 -9 -19 -5 -26 4 -6 1 -15 -6 -20 -12 -7 -11 -9 1
-9 23 0 48 20 33 27 -19 7 -16 24 3 21 10 -2 19 2 21 7 5 16 -34 16 -47 0z"/>
<path d="M2775 221 c-18 -36 -29 -41 -19 -8 6 19 4 19 -16 -6 -12 -16 -22 -39
-22 -53 0 -20 -3 -22 -14 -13 -10 8 -14 8 -14 0 0 -15 -17 -14 -23 1 -2 7 -3
5 -2 -5 2 -9 -3 -17 -11 -17 -8 0 -11 -6 -7 -17 4 -9 8 -12 10 -6 2 6 13 9 24
6 15 -4 18 -2 12 13 -5 13 -3 16 10 11 12 -4 27 10 57 54 23 34 39 63 36 66
-2 3 -12 -9 -21 -26z m-35 -51 c-6 -11 -13 -20 -16 -20 -2 0 0 9 6 20 6 11 13
20 16 20 2 0 0 -9 -6 -20z"/>
<path d="M1036 221 c-4 -5 -15 -8 -26 -6 -12 2 -18 0 -15 -6 4 -5 12 -9 18 -9
18 0 42 18 35 25 -3 4 -9 2 -12 -4z"/>
<path d="M1100 220 c-13 -8 -12 -10 3 -10 9 0 17 5 17 10 0 12 -1 12 -20 0z"/>
<path d="M2578 206 c-4 -20 -1 -23 23 -22 15 1 31 4 35 8 3 4 -6 5 -22 2 -23
-4 -27 -3 -16 7 16 17 15 29 -2 29 -7 0 -16 -11 -18 -24z"/>
<path d="M858 213 c12 -2 30 -2 40 0 9 3 -1 5 -23 4 -22 0 -30 -2 -17 -4z"/>
<path d="M2787 193 c-3 -5 -4 -22 -2 -40 2 -23 -4 -37 -19 -50 -11 -10 -15
-11 -8 -3 14 16 16 40 3 40 -10 0 -27 -39 -23 -52 1 -5 -3 -8 -10 -8 -6 0 -29
-18 -50 -40 l-40 -40 91 0 91 0 0 91 c0 57 -4 88 -10 84 -6 -3 -7 1 -4 9 6 16
-11 23 -19 9z"/>
<path d="M2625 150 c-3 -5 -1 -10 4 -10 6 0 11 5 11 10 0 6 -2 10 -4 10 -3 0
-8 -4 -11 -10z"/>
<path d="M1211 89 l-23 -19 23 0 c13 0 35 9 48 19 l24 19 -24 0 c-14 0 -35 -9
-48 -19z"/>
<path d="M730 94 c0 -9 40 -23 44 -15 3 5 -5 11 -19 13 -14 3 -25 4 -25 2z"/>
<path d="M2453 74 c3 -4 0 -22 -8 -41 -13 -32 -13 -34 0 -23 8 7 15 19 15 26
0 8 7 14 15 14 20 0 19 16 -1 24 -20 8 -29 8 -21 0z"/>
<path d="M1160 59 c0 -5 5 -7 10 -4 6 3 10 8 10 11 0 2 -4 4 -10 4 -5 0 -10
-5 -10 -11z"/>
<path d="M1362 50 c0 -14 2 -19 5 -12 2 6 2 18 0 25 -3 6 -5 1 -5 -13z"/>
<path d="M2550 61 c0 -6 4 -13 10 -16 6 -3 7 1 4 9 -7 18 -14 21 -14 7z"/>
<path d="M2578 53 c5 -10 7 -25 5 -33 -4 -13 -3 -13 6 -1 9 14 -2 51 -15 51
-2 0 -1 -8 4 -17z"/>
<path d="M671 56 c2 -2 20 -6 39 -10 25 -4 31 -3 20 4 -14 9 -69 15 -59 6z"/>
<path d="M2613 40 c2 -26 17 -26 17 0 0 11 -4 20 -9 20 -6 0 -9 -9 -8 -20z"/>
<path d="M2360 37 c0 -5 -5 -5 -12 -1 -7 5 -8 3 -3 -5 4 -8 18 -10 34 -7 14 3
20 3 14 0 -7 -3 -13 -11 -13 -17 0 -8 4 -7 12 1 20 20 17 37 -8 37 -13 0 -24
-4 -24 -8z"/>
<path d="M742 20 c-11 -18 -10 -20 18 -20 19 0 33 7 40 20 10 18 8 20 -17 20
-17 0 -33 -8 -41 -20z"/>
<path d="M2540 15 c-10 -13 -9 -15 9 -15 12 0 21 6 21 15 0 8 -4 15 -9 15 -5
0 -14 -7 -21 -15z"/>
<path d="M2310 10 c0 -5 7 -10 16 -10 8 0 12 5 9 10 -3 6 -10 10 -16 10 -5 0
-9 -4 -9 -10z"/>
</g>
</svg>
